# xmcd
#
# Track frame offsets:
#	150
#	11805
#	29415
#	39852
#	51715
#	64675
#	83925
#	95257
#	113379
#	130765
#	140620
#	153055
#	163402
#	176955
#	191975
#	203022
#
# Disc length: 2871
#
# Revision: 1
# Processed by: cddbd v1.5.1PL0 Copyright (c) Steve Scherf et al.
# Submitted via: dBpowerAMP V4.0
# Normalized: r0:DSETVAR2,TDELIM( - )
#
DISCID=dd0b3510
DTITLE=Various Artist - Country Music Box CD1
DYEAR=1997
DGENRE=Country
TTITLE0=Crystal Gale - Don´t It Make My Brown Eyes Blue
TTITLE1=Lynn Andersson - Close To You
TTITLE2=George Hamilton IV - Abeline
TTITLE3=Telly Savallas - Some Broken Harts Never Mend
TTITLE4=Lucille Starr - The French Song
TTITLE5=Bobby Bare - Me And Bobby McGee
TTITLE6=Hank Locklin - Sen Me The Pillow
TTITLE7=Ricky Nelson - Garden Party
TTITLE8=Calvin Wiggett - If She Could See Me Now
TTITLE9=Merle Haggard - Mama Tried
TTITLE10=Johnny Cash - I Walk The Line
TTITLE11=Johnny Russell - Jambalaya
TTITLE12=Jimmy Dean - Big Bad John
TTITLE13=Kingston Trio - Tom Doodley
TTITLE14=Roger Miller - King Of The Road
TTITLE15=Nancy Sinatra and Lee Hazlewood - Jackson
EXTD=
EXTT0=
EXTT1=
EXTT2=
EXTT3=
EXTT4=
EXTT5=
EXTT6=
EXTT7=
EXTT8=
EXTT9=
EXTT10=
EXTT11=
EXTT12=
EXTT13=
EXTT14=
EXTT15=
PLAYORDER=
